<svg width="680" height="620" viewBox="0 0 680 620" xmlns="http://www.w3.org/2000/svg" style="background:#07090F; font-family: 'JetBrains Mono', monospace;">
<defs>
<marker id="arrow" viewBox="0 0 10 10" refX="8" refY="5" markerWidth="6" markerHeight="6" orient="auto-start-reverse">
<path d="M2 1L8 5L2 9" fill="none" stroke="#6B88A8" stroke-width="1.5" stroke-linecap="round" stroke-linejoin="round"/>
</marker>
</defs>

<!-- Developer -->
<rect x="30" y="260" width="100" height="56" rx="8" fill="#1A1040" stroke="#8B68F0" stroke-width="0.8"/>
<text x="80" y="283" text-anchor="middle" dominant-baseline="central" fill="#C4D4E8" font-size="13" font-weight="600">Developer</text>
<text x="80" y="301" text-anchor="middle" dominant-baseline="central" fill="#6B88A8" font-size="11">browser</text>

<!-- OAuth arrow -->
<path d="M80 260 L80 180 L200 180" fill="none" stroke="#6B88A8" stroke-width="0.8" marker-end="url(#arrow)" opacity="0.7"/>
<text x="120" y="170" text-anchor="middle" fill="#6B88A8" font-size="11">OAuth 2.0</text>

<!-- Atlassian OAuth -->
<rect x="200" y="155" width="130" height="50" rx="8" fill="#0A2820" stroke="#0FBA74" stroke-width="0.8"/>
<text x="265" y="176" text-anchor="middle" dominant-baseline="central" fill="#C4D4E8" font-size="13" font-weight="600">Atlassian</text>
<text x="265" y="194" text-anchor="middle" dominant-baseline="central" fill="#6B88A8" font-size="11">OAuth 2.0</text>

<!-- Atlassian → FastAPI -->
<path d="M330 180 L390 180 L390 250" fill="none" stroke="#6B88A8" stroke-width="0.8" marker-end="url(#arrow)" opacity="0.7"/>
<text x="370" y="170" text-anchor="middle" fill="#6B88A8" font-size="11">token</text>

<!-- FastAPI Server -->
<rect x="320" y="250" width="160" height="60" rx="8" fill="#071830" stroke="#2D7DD2" stroke-width="0.8"/>
<text x="400" y="273" text-anchor="middle" dominant-baseline="central" fill="#C4D4E8" font-size="13" font-weight="600">FastAPI server</text>
<text x="400" y="293" text-anchor="middle" dominant-baseline="central" fill="#6B88A8" font-size="11">poller · cache · WS</text>

<!-- Dev → FastAPI WebSocket -->
<path d="M130 283 L320 283" fill="none" stroke="#6B88A8" stroke-width="0.8" marker-end="url(#arrow)" opacity="0.7"/>
<text x="225" y="275" text-anchor="middle" fill="#6B88A8" font-size="11">WebSocket</text>

<!-- FastAPI → Dev briefing -->
<path d="M320 295 L130 295" fill="none" stroke="#6B88A8" stroke-width="0.8" marker-end="url(#arrow)" opacity="0.7"/>
<text x="225" y="308" text-anchor="middle" fill="#6B88A8" font-size="11">briefing</text>

<!-- FastAPI → Jira polling (dashed) -->
<path d="M400 250 L400 180 L340 180" fill="none" stroke="#6B88A8" stroke-width="0.8" marker-end="url(#arrow)" stroke-dasharray="4 3" opacity="0.6"/>
<text x="432" y="222" fill="#6B88A8" font-size="11">poll 30s</text>

<!-- FastAPI → Orchestrator -->
<path d="M480 280 L560 280" fill="none" stroke="#6B88A8" stroke-width="0.8" marker-end="url(#arrow)" opacity="0.7"/>

<!-- Orchestrator -->
<rect x="560" y="255" width="100" height="52" rx="8" fill="#1A0C08" stroke="#E84040" stroke-width="0.8"/>
<text x="610" y="275" text-anchor="middle" dominant-baseline="central" fill="#C4D4E8" font-size="13" font-weight="600">Orchestrator</text>
<text x="610" y="293" text-anchor="middle" dominant-baseline="central" fill="#6B88A8" font-size="11">fan-out</text>

<!-- Fan-out lines -->
<path d="M610 307 L610 360 L510 360" fill="none" stroke="#6B88A8" stroke-width="0.8" marker-end="url(#arrow)" opacity="0.6"/>
<path d="M610 307 L610 400 L510 400" fill="none" stroke="#6B88A8" stroke-width="0.8" marker-end="url(#arrow)" opacity="0.6"/>
<path d="M610 307 L610 440 L510 440" fill="none" stroke="#6B88A8" stroke-width="0.8" marker-end="url(#arrow)" opacity="0.6"/>
<path d="M610 307 L610 480 L510 480" fill="none" stroke="#6B88A8" stroke-width="0.8" marker-end="url(#arrow)" opacity="0.6"/>
<path d="M610 307 L610 520 L510 520" fill="none" stroke="#6B88A8" stroke-width="0.8" marker-end="url(#arrow)" opacity="0.6"/>

<!-- Platform boxes -->
<rect x="370" y="342" width="140" height="36" rx="6" fill="#0A2820" stroke="#0FBA74" stroke-width="0.8"/>
<text x="440" y="364" text-anchor="middle" dominant-baseline="central" fill="#C4D4E8" font-size="13" font-weight="600">Jira API</text>

<rect x="370" y="382" width="140" height="36" rx="6" fill="#1A1040" stroke="#8B68F0" stroke-width="0.8"/>
<text x="440" y="404" text-anchor="middle" dominant-baseline="central" fill="#C4D4E8" font-size="13" font-weight="600">Bitbucket API</text>

<rect x="370" y="422" width="140" height="36" rx="6" fill="#1A1008" stroke="#F0A020" stroke-width="0.8"/>
<text x="440" y="444" text-anchor="middle" dominant-baseline="central" fill="#C4D4E8" font-size="13" font-weight="600">GCP Logging</text>

<rect x="370" y="462" width="140" height="36" rx="6" fill="#111826" stroke="#344D68" stroke-width="0.8"/>
<text x="440" y="484" text-anchor="middle" dominant-baseline="central" fill="#C4D4E8" font-size="12" font-weight="600">Outlook (MS Graph)</text>

<rect x="370" y="502" width="140" height="36" rx="6" fill="#111826" stroke="#344D68" stroke-width="0.8"/>
<text x="440" y="524" text-anchor="middle" dominant-baseline="central" fill="#C4D4E8" font-size="12" font-weight="600">Teams (MS Graph)</text>

<!-- Platforms → Gemini -->
<path d="M370 430 L200 430 L200 530" fill="none" stroke="#6B88A8" stroke-width="0.8" marker-end="url(#arrow)" opacity="0.6"/>

<!-- Gemini -->
<rect x="130" y="530" width="160" height="56" rx="8" fill="#1A0C08" stroke="#E84040" stroke-width="0.8"/>
<text x="210" y="552" text-anchor="middle" dominant-baseline="central" fill="#C4D4E8" font-size="13" font-weight="600">Gemini 2.5 Flash</text>
<text x="210" y="571" text-anchor="middle" dominant-baseline="central" fill="#6B88A8" font-size="11">Vertex AI synthesis</text>

<!-- Gemini → FastAPI -->
<path d="M290 558 L400 558 L400 310" fill="none" stroke="#6B88A8" stroke-width="0.8" marker-end="url(#arrow)" opacity="0.6"/>
<text x="432" y="548" fill="#6B88A8" font-size="11">briefing</text>

<!-- Dashboard -->
<rect x="30" y="380" width="100" height="50" rx="8" fill="#071830" stroke="#2D7DD2" stroke-width="0.8"/>
<text x="80" y="400" text-anchor="middle" dominant-baseline="central" fill="#C4D4E8" font-size="13" font-weight="600">Dashboard</text>
<text x="80" y="418" text-anchor="middle" dominant-baseline="central" fill="#6B88A8" font-size="11">dark UI · JS</text>

<!-- Dev → Dashboard -->
<path d="M80 316 L80 380" fill="none" stroke="#6B88A8" stroke-width="0.8" marker-end="url(#arrow)" opacity="0.7"/>

<!-- Legend -->
<rect x="30" y="470" width="260" height="72" rx="6" fill="none" stroke="#344D68" stroke-width="0.5" stroke-dasharray="3 3"/>
<text x="42" y="492" fill="#6B88A8" font-size="11">── solid      real-time / request flow</text>
<text x="42" y="512" fill="#6B88A8" font-size="11">╌╌ dashed    background polling</text>
<text x="42" y="532" fill="#344D68" font-size="11">Region: APAC · Navadhan Capital</text>
</svg>
